<svg width="52" height="60" viewBox="0 0 52 60" fill="none" xmlns="http://www.w3.org/2000/svg">
<path d="M25.7012 16.1997C23.7885 20.1392 18.1054 23.0308 15.5402 24.1002C13.0747 20.0996 13.0747 14.2514 13.0747 14.2514C13.0747 14.2514 8.18494 16.2748 4.93104 20.4442C2.212 23.9283 -1.43485e-05 29.807 0 34.6951C3.15644e-05 45.4481 3.38697 47.4289 5.60345 51.4082C9.38038 56.3414 17.3483 59.8095 24.5805 59.9886C33.6207 60.2124 40.1954 57.1248 44.8276 52.4989C49.4598 47.8729 52 39.3211 52 33.4267C52 27.5324 50.6965 22.1691 45.093 13.2157C39.4896 4.26227 27.2701 -0.96941 27.569 0.14977C27.8678 1.26895 28.092 11.2753 25.7012 16.1997Z" fill="#FC5069"/>
</svg>
